<svg version="1.1" xmlns="http://www.w3.org/2000/svg" xmlns:xlink="http://www.w3.org/1999/xlink" viewBox="0 0 172 172"><defs><linearGradient x1="45.45817" y1="16.45467" x2="127.495" y2="149.93025" gradientUnits="userSpaceOnUse" id="color-1"><stop offset="0" stop-color="#ae955c"></stop><stop offset="1" stop-color="#ae955c"></stop></linearGradient></defs><g fill="none" fill-rule="nonzero" stroke="none" stroke-width="1" stroke-linecap="butt" stroke-linejoin="miter" stroke-miterlimit="10" stroke-dasharray="" stroke-dashoffset="0" font-family="none" font-weight="none" font-size="none" text-anchor="none" style="mix-blend-mode: normal"><path d="M0,172v-172h172v172z" fill="none"></path><g><path d="M150.5,28.66667h-129c-3.95958,0 -7.16667,3.20708 -7.16667,7.16667v93.16667c0,3.95958 3.20708,7.16667 7.16667,7.16667h28.66667v28.6595c0,3.19275 3.85925,4.79092 6.11675,2.53342l31.19292,-31.19292h63.02367c3.95958,0 7.16667,-3.20708 7.16667,-7.16667v-93.16667c0,-3.95958 -3.20708,-7.16667 -7.16667,-7.16667z" fill="url(#color-1)"></path><path d="M84.03633,43c-6.622,0 -14.86008,3.35042 -18.51508,4.99875c-1.16817,0.52675 -1.89917,1.68058 -1.89917,2.95983v16.30775c0,2.05683 2.40442,3.15692 3.956,1.80958c3.42925,-2.97775 8.77917,-6.52525 14.80275,-6.52525c1.77375,0 3.88792,0.559 3.88792,3.22142c0,7.02692 -14.13625,9.53167 -14.13625,24.44192c0,1.96367 0.92808,5.3965 1.55517,7.48558c0.31533,1.04992 1.27567,1.77375 2.37575,1.77017l15.42267,-0.03942c1.77375,-0.00358 3.00283,-1.892 2.14283,-3.44358c-0.97825,-1.763 -1.35092,-3.64783 -1.35092,-4.35017c0,-2.838 1.39033,-4.78375 5.05608,-7.8905c4.66192,-3.95242 11.04742,-9.36325 11.04742,-20.05592c-0.00358,-12.95375 -9.10167,-20.69017 -24.34517,-20.69017z" fill="#111111" opacity="0.05"></path><path d="M66.81483,49.20633c3.21425,-1.58742 9.96525,-4.41467 17.2215,-4.41467c17.87008,0 22.54992,10.91483 22.54992,18.90567c0,9.79683 -5.70825,14.69883 -10.31642,18.60467c-3.03867,2.57642 -5.10267,4.50425 -5.87667,7.06275c-0.28308,0.93525 -0.215,2.56208 0.39058,4.09933c0.731,1.849 2.66958,4.20325 -1.89558,4.20325l-11.76408,0.01792c-1.18967,0 -1.87767,-0.67008 -2.06758,-1.32583c-0.36908,-1.26492 -0.82775,-3.16408 -0.99617,-4.945c-0.07883,-0.84208 -0.1075,-1.634 -0.06808,-2.322c0.79192,-13.23683 14.06817,-15.00342 14.06817,-23.31675c0,-2.47967 -1.47992,-3.47583 -2.89892,-4.02767c-2.13208,-0.83492 -4.601,-0.68083 -5.977,-0.35475c-3.34325,0.7955 -6.35325,2.14642 -8.68242,3.68008c-1.61608,1.06425 -3.53675,0.97108 -4.11725,0.36192c-0.4085,0.29742 -0.97467,-1.82392 -0.97467,-2.32917v-11.20508c0,-0.215 0.05733,-0.87792 0.11825,-1.075c0.21142,-0.67725 0.61992,-1.29 1.28642,-1.61967z" fill="#111111" opacity="0.07"></path><path d="M83.60633,100.4265c-5.62583,0 -11.61,3.73742 -11.61,10.66042c0,6.98033 5.98417,10.74642 11.61,10.74642c6.76175,0 11.481,-4.41825 11.481,-10.74642c0,-6.99825 -5.77633,-10.66042 -11.481,-10.66042z" fill="#111111" opacity="0.05"></path><path d="M83.60633,120.04167c-4.76583,0 -9.81833,-3.09958 -9.81833,-8.95475c0,-5.8265 5.13492,-8.86875 9.81833,-8.86875c4.72283,0 9.68933,2.87742 9.68933,8.86875c0,5.6545 -4.35733,8.95475 -9.68933,8.95475z" fill="#111111" opacity="0.07"></path><path d="M76.70842,95.89358c-0.31533,-0.82058 -0.99258,-3.26083 -0.99258,-5.67242c0,-13.73133 14.13625,-14.25808 14.13625,-24.44192c0,-6.41058 -6.33533,-6.80833 -7.47125,-6.80833c-7.19533,0 -12.814,4.11367 -15.17542,6.192v-14.22942c2.4295,-1.45125 7.98008,-4.35017 16.83092,-4.35017c20.49667,0 20.75467,14.08967 20.75467,17.114c0,16.26475 -16.78433,17.46875 -16.78433,27.89267c0,2.17508 0.78833,3.76608 1.13592,4.30358zM83.60633,118.25c-3.90225,0 -8.02667,-2.43308 -8.02667,-7.16308c0,-4.73 4.28567,-7.07708 8.02667,-7.07708c3.741,0 7.89767,2.09625 7.89767,7.07708c0,4.98083 -3.99542,7.16308 -7.89767,7.16308z" fill="#111111"></path></g></g></svg>